<svg width="117" height="127" viewBox="0 0 117 127" fill="none" xmlns="http://www.w3.org/2000/svg">
<circle cx="27" cy="93" r="12" fill="#86FA16"/>
<circle cx="97" cy="85" r="12" fill="#B38FFF"/>
<circle cx="19" cy="70" r="12" fill="#FF5757"/>
<circle cx="77" cy="15" r="12" fill="#97D1FD"/>
<circle cx="101" cy="57" r="12" fill="#FFCFB3"/>
<circle cx="23" cy="34" r="12" fill="#F8FF30"/>
<circle cx="23" cy="34" r="12" fill="#F8FF30"/>
<g filter="url(#filter0_d_460_907)">
<path d="M70.6614 111.862C68.4157 112.749 66.1124 112.868 63.8289 113C61.8745 113.114 59.911 113.1 57.953 113.034C56.7681 112.994 55.5922 112.733 54.4091 112.604C53.6647 112.522 52.915 112.501 52.167 112.446C51.8739 112.425 51.7552 112.549 51.7696 112.877C51.7876 113.301 51.7822 113.728 51.7696 114.154C51.7624 114.431 51.8685 114.536 52.1166 114.527C52.3126 114.519 52.5086 114.546 52.7046 114.544C54.3606 114.532 55.9644 114.872 57.5916 115.192C59.5694 115.582 61.6102 115.602 63.6257 115.766C63.9494 115.793 64.2802 115.703 64.6039 115.731C66.6464 115.904 68.6134 115.223 70.629 115.114C70.9203 115.098 71.217 114.934 71.4885 114.788C71.9524 114.536 72.4127 114.56 72.7111 114.895C73.024 115.249 73.0366 115.774 72.7345 116.264C72.4144 116.781 71.9955 117.169 71.4255 117.312C70.8699 117.45 70.3072 117.554 69.7462 117.663C69.0899 117.792 68.43 117.915 67.7738 118.04C67.3566 118.118 66.9413 118.246 66.5205 118.266C63.6815 118.393 60.8406 118.481 58.0195 117.973C57.7462 117.924 57.4621 117.907 57.2014 117.815C55.6012 117.241 53.947 117.097 52.2785 117.066C51.953 117.06 51.6258 117.066 51.3021 117.099C50.1892 117.216 49.5383 116.66 49.4879 115.438C49.4484 114.484 49.479 113.525 49.5131 112.569C49.5257 112.233 49.4718 112.013 49.1895 111.827C48.7903 111.564 48.5368 111.17 48.6213 110.627C48.7004 110.112 49.0294 109.864 49.4736 109.716C49.603 109.673 49.754 109.431 49.763 109.273C49.8511 107.822 49.9123 106.37 49.9752 104.92C49.9788 104.819 49.9752 104.696 49.9267 104.614C48.891 102.801 48.8263 100.753 48.7094 98.7198C48.5746 96.3856 48.5062 94.0474 48.3102 91.7191C48.1322 89.5995 47.7852 87.5073 46.9851 85.5322C46.4835 84.2929 45.7984 83.2155 44.8239 82.3588C43.2776 80.9965 41.7978 79.5366 40.1832 78.2778C36.5494 75.4439 34.6201 71.5288 33.7283 66.8838C32.3187 59.5454 33.0613 52.3983 35.3196 45.3839C35.4958 44.8336 35.6828 44.2676 35.9705 43.7816C37.3136 41.5001 38.6783 39.2322 40.0735 36.9878C40.3882 36.4823 40.8197 36.0373 41.2656 35.6587C44.4733 32.9419 47.8499 30.5023 51.7858 29.2278C55.9141 27.889 60.1466 27.3386 64.4079 28.3359C67.727 29.1127 70.8196 30.6116 73.8223 32.3232C75.1798 33.098 76.5481 33.8514 77.9433 34.5423C80.6853 35.8987 82.9167 37.8563 84.5834 40.6218C86.0974 43.1356 87.3973 45.7196 87.9619 48.694C88.3305 50.6398 88.0554 52.5349 87.7335 54.4417C86.8184 59.8362 85.2109 64.9809 82.6919 69.7294C81.009 72.9028 79.1246 75.9592 77.2169 78.9823C75.6778 81.4219 74.3042 83.9416 73.2937 86.6857C72.2185 89.6073 71.7492 92.6188 71.9955 95.7864C72.2167 98.6437 72.2598 101.519 72.3965 104.386C72.4055 104.571 72.499 104.788 72.6176 104.926C73.0923 105.484 73.0725 106.029 72.5799 106.546C72.427 106.706 72.3138 106.977 72.2922 107.21C72.134 108.884 72.0207 110.563 71.8499 112.235C71.8085 112.643 71.6503 113.059 71.4633 113.422C71.3824 113.578 71.0929 113.605 70.8987 113.693C70.8484 113.502 70.7711 113.315 70.7513 113.121C70.7081 112.702 70.6919 112.278 70.6668 111.866L70.6614 111.862ZM70.2964 104.44C70.2964 103.853 70.3216 103.361 70.2928 102.871C70.1507 100.502 70.0231 98.1284 69.8379 95.763C69.561 92.2128 70.2209 88.852 71.4903 85.6083C72.5853 82.8076 74.0147 80.2197 75.6113 77.7176C77.4327 74.8643 79.2181 71.9738 80.8453 68.9877C83.4237 64.2588 84.9286 59.0926 85.8762 53.7001C86.3778 50.8448 86.0218 48.1885 84.8369 45.6533C84.1735 44.2363 83.3644 42.8994 82.5786 41.5547C81.2103 39.2127 79.2397 37.6669 76.9221 36.576C75.516 35.9143 74.1477 35.1571 72.7435 34.4857C70.8933 33.6016 69.0342 32.7311 67.1606 31.9075C62.3959 29.8094 57.5538 30.1666 52.737 31.5913C48.9881 32.6999 45.8218 35.0497 42.7759 37.583C42.4685 37.8387 42.1682 38.1451 41.9579 38.4945C40.6075 40.7292 39.2644 42.9677 37.9627 45.2376C37.6588 45.7684 37.4934 46.4066 37.3208 47.0136C35.5641 53.1731 34.9636 59.4127 36.1862 65.7928C36.9809 69.9421 38.5884 73.5098 41.832 76.0841C43.3046 77.2531 44.6261 78.6447 46.0663 79.8645C48.2581 81.7186 49.4754 84.2109 50.1892 87.0409C50.9479 90.0504 51.1565 93.1419 51.2985 96.245C51.3831 98.0992 51.5359 99.9552 51.7463 101.798C51.8775 102.941 52.0393 103.019 53.0894 103.154C53.1703 103.164 53.2512 103.17 53.3339 103.177C54.6662 103.306 55.9968 103.474 57.3327 103.552C58.3989 103.615 59.4723 103.564 60.5637 103.564C60.0926 101.481 60.0585 99.3717 59.974 97.2658C59.8913 95.195 59.7924 93.1243 59.7043 91.0535C59.6323 89.338 59.5245 87.6225 59.5101 85.905C59.4903 83.4966 59.5802 81.0863 59.546 78.6779C59.5335 77.7489 59.805 77.1751 60.5925 76.8159C62.8112 75.8069 64.0735 73.9313 64.6614 71.4488C65.1666 69.3136 64.843 67.3756 63.561 65.6484C63.4549 65.5039 63.3273 65.379 63.1888 65.2229C63.0504 65.4376 62.9605 65.6093 62.8418 65.7518C62.2628 66.4447 61.7396 67.2156 61.078 67.7972C59.9686 68.775 58.5643 68.7672 57.374 67.9377C55.8547 66.8779 55.6336 64.5125 56.9803 63.2146C58.1292 62.106 59.4921 61.581 61.0492 61.823C62.3096 62.0182 62.3096 62.028 62.6476 60.6754C62.6818 60.5388 62.7088 60.4003 62.7375 60.2617C63.036 58.8233 62.8418 57.4083 62.5847 55.9914C62.5002 55.5249 62.4301 55.0468 62.4211 54.5725C62.4121 54.1197 62.6063 53.743 63.0414 53.5947C63.4909 53.4425 63.8505 53.6279 64.1094 54.0202C64.2694 54.2622 64.4025 54.5354 64.4978 54.8145C65.422 57.541 65.4777 60.2539 64.3234 62.9258C64.1795 63.2614 64.1795 63.4742 64.4313 63.7572C65.2278 64.6471 65.7995 65.6933 66.0998 66.9014C66.668 69.1829 66.2832 71.3454 65.4795 73.4844C64.8016 75.2858 63.6689 76.57 62.0687 77.4015C61.7306 77.5771 61.4088 77.7976 61.0582 77.9382C60.7345 78.067 60.6986 78.2622 60.7741 78.5861C61.0114 79.5971 61.3225 80.6003 61.4358 81.6269C61.754 84.5466 61.9536 87.4819 62.2628 90.4017C62.6926 94.4632 62.4409 98.5071 62.0902 102.553C62.0561 102.953 62.0399 103.355 62.0147 103.759C64.7675 104.546 67.5274 104.183 70.2928 104.434L70.2964 104.44ZM51.9081 109.71C52.5302 109.753 53.1181 109.753 53.6971 109.841C55.407 110.098 57.0828 110.574 58.834 110.545C61.9985 110.492 65.1631 110.533 68.3276 110.496C68.9695 110.489 69.6077 110.295 70.2496 110.204C70.5229 110.165 70.5913 110.02 70.5733 109.737C70.5247 108.978 70.4816 108.217 70.4726 107.454C70.4672 107.059 70.3395 106.944 69.9799 106.946C68.5757 106.958 67.1714 106.979 65.769 106.913C64.6308 106.86 63.4981 106.685 62.3635 106.57C61.4412 106.476 60.5188 106.367 59.5928 106.302C58.4546 106.222 57.3129 106.197 56.173 106.113C54.6824 106.004 53.1955 105.859 51.6959 105.73C51.766 107.034 51.8362 108.353 51.9081 109.708V109.71ZM61.184 64.1182C60.2599 63.7201 58.9725 64.0948 58.4708 64.8072C58.1939 65.2014 58.2766 65.7108 58.7064 65.8416C59.0048 65.9314 59.4525 65.9606 59.6593 65.7811C60.2059 65.3088 60.6572 64.7076 61.1822 64.1182H61.184Z" fill="black"/>
<path d="M72.2241 25.0122C72.2583 23.4723 72.537 22.2193 72.9757 21.0092C74.0617 18.0134 75.1585 15.0214 76.2589 12.0295C76.3973 11.6528 76.5537 11.2742 76.7641 10.9424C76.9439 10.6575 77.1777 10.3784 77.4474 10.2047C78.1774 9.73236 78.9469 10.1793 78.9865 11.1005C79.0026 11.4791 78.9235 11.8753 78.83 12.2461C78.1288 15.0722 77.201 17.8026 76.0341 20.4511C75.3904 21.9109 74.9967 23.4957 74.4555 25.0102C74.2469 25.5938 73.9898 26.1754 73.6553 26.6828C73.5187 26.8916 73.0908 27.0283 72.8534 26.96C72.6467 26.8994 72.4453 26.5267 72.3788 26.2534C72.2637 25.7792 72.2529 25.2756 72.2241 25.0122Z" fill="black"/>
<path d="M25.1594 93.1926C25.875 92.6754 26.6769 92.0996 27.4753 91.52C28.7662 90.5812 30.1795 89.9586 31.697 89.621C32.0584 89.541 32.445 89.5332 32.8136 89.5663C33.2469 89.6054 33.5957 89.8493 33.7234 90.3295C33.8546 90.8193 33.718 91.2487 33.3566 91.5668C33.157 91.7444 32.9304 91.9025 32.6931 92.0099C30.7405 92.8959 28.9478 94.0748 27.2307 95.4078C26.623 95.8801 25.9631 96.2802 25.2979 96.6529C24.9598 96.8423 24.5625 96.9769 24.1831 97.0042C22.9515 97.0921 22.137 95.8723 22.5613 94.6154C22.8921 93.6337 23.6347 93.1789 24.5013 92.9369C24.6632 92.892 24.8807 93.0774 25.1576 93.1926H25.1594Z" fill="black"/>
<path d="M99.8973 16.8072C100.151 16.9848 100.509 17.1019 100.611 17.3459C100.715 17.5918 100.651 18.0173 100.512 18.2671C100.325 18.6028 100.02 18.8799 99.721 19.12C97.38 20.9917 95.0894 22.9277 92.9767 25.1039C92.0076 26.1031 90.8964 26.8663 89.636 27.3698C89.2152 27.5376 88.7999 27.6645 88.4673 27.239C88.1256 26.8018 88.2605 26.3178 88.5176 25.9099C88.7154 25.5937 88.9905 25.3283 89.2566 25.0726C90.197 24.171 91.1859 23.3239 92.0885 22.3813C94.0088 20.3749 96.107 18.6555 98.502 17.3771C98.9209 17.1546 99.3776 17.018 99.8955 16.8092L99.8973 16.8072Z" fill="black"/>
<path d="M13.0622 70.9804C12.672 70.9804 12.2782 71.0194 11.8916 70.9726C11.1634 70.8847 10.7103 70.4163 10.6582 69.7664C10.6061 69.1243 10.9729 68.5388 11.6795 68.3456C12.3555 68.1602 13.055 68.0509 13.7508 67.9865C15.5524 67.8206 17.3576 67.6469 19.1646 67.5805C20.3873 67.5356 21.5524 67.2429 22.7175 66.9131C23.14 66.7921 23.5014 66.835 23.7496 67.2527C24.0139 67.7015 23.9312 68.1485 23.6291 68.5271C23.0483 69.257 22.3004 69.7547 21.4571 69.9889C20.6102 70.2251 19.7328 70.3636 18.8608 70.4612C16.9315 70.6779 14.9968 70.8418 13.0658 71.0272V70.9823L13.0622 70.9804Z" fill="black"/>
<path d="M28.0991 34.3334C25.3787 33.6738 22.4785 33.7011 19.875 32.2744C19.2781 31.9485 18.647 31.6986 18.0428 31.3844C17.7983 31.2576 17.5502 31.0878 17.3722 30.8692C16.9245 30.3188 17.1348 29.5225 17.7947 29.3683C18.1777 29.2785 18.6074 29.3137 18.9976 29.4015C19.5388 29.5205 20.0764 29.6962 20.5852 29.9285C21.9805 30.5608 23.4315 30.9258 24.9094 31.2497C26.2795 31.5484 27.6209 32.0187 28.9712 32.4208C29.3685 32.5398 29.6436 32.7994 29.6346 33.2834C29.6256 33.7557 29.3523 34.029 28.9658 34.1578C28.7051 34.2456 28.4264 34.269 28.0991 34.3334Z" fill="black"/>
<path d="M50.0075 20.4159C49.9644 20.5662 49.9338 20.8824 49.7936 21.1224C49.4843 21.6474 48.8083 21.5167 48.5583 20.8882C48.2149 20.0275 47.8931 19.159 47.5676 18.2886C46.7172 16.009 45.8649 13.7294 45.027 11.444C44.8832 11.0537 44.7304 10.6301 44.7375 10.2242C44.7429 9.90215 44.9209 9.50206 45.1457 9.28932C45.4514 8.99852 45.8361 9.18393 46.1238 9.44741C46.3072 9.61525 46.478 9.82018 46.6021 10.0446C48.2814 13.0834 49.3351 16.3779 49.9572 19.8441C49.9824 19.9826 49.9824 20.1251 50.0075 20.4159Z" fill="black"/>
<path d="M97.9591 56.1124C99.313 55.8997 100.663 55.6577 102.021 55.484C102.911 55.3708 103.81 55.3395 104.705 55.3044C105.009 55.2927 105.326 55.3473 105.62 55.4371C106.057 55.5698 106.368 55.8782 106.435 56.3915C106.505 56.9282 106.286 57.3459 105.861 57.5781C105.518 57.7655 105.135 57.9314 104.757 57.9704C102.923 58.1636 101.086 58.3276 99.2483 58.4642C98.3889 58.5286 97.551 58.3549 96.8066 57.8514C96.3841 57.5664 95.9202 57.1956 96.0586 56.6042C96.1917 56.0304 96.7778 56.1007 97.2166 56.0324C97.4557 55.9953 97.7056 56.0265 97.9502 56.0265L97.9609 56.1104L97.9591 56.1124Z" fill="black"/>
<path d="M101.588 85.7625C101.147 85.6064 100.784 85.538 100.473 85.3604C99.0002 84.5212 97.506 83.7171 96.0946 82.7705C95.2747 82.2202 94.5735 81.4512 93.8615 80.731C93.3814 80.247 93.18 79.5776 93.0973 78.8769C93.0416 78.4007 93.2501 78.2192 93.6349 78.4417C94.1653 78.7481 94.6778 79.0877 95.1902 79.4293C96.2438 80.1338 97.2903 80.852 98.3403 81.5625C99.322 82.226 100.316 82.8701 101.284 83.5571C101.593 83.7757 101.884 84.0645 102.093 84.3905C102.24 84.6207 102.353 85.0267 102.262 85.2453C102.159 85.4893 101.807 85.6083 101.589 85.7625H101.588Z" fill="black"/>
</g>
<defs>
<filter id="filter0_d_460_907" x="0" y="0" width="125" height="135" filterUnits="userSpaceOnUse" color-interpolation-filters="sRGB">
<feFlood flood-opacity="0" result="BackgroundImageFix"/>
<feColorMatrix in="SourceAlpha" type="matrix" values="0 0 0 0 0 0 0 0 0 0 0 0 0 0 0 0 0 0 127 0" result="hardAlpha"/>
<feOffset dx="4" dy="4"/>
<feGaussianBlur stdDeviation="2"/>
<feComposite in2="hardAlpha" operator="out"/>
<feColorMatrix type="matrix" values="0 0 0 0 0 0 0 0 0 0 0 0 0 0 0 0 0 0 0.25 0"/>
<feBlend mode="normal" in2="BackgroundImageFix" result="effect1_dropShadow_460_907"/>
<feBlend mode="normal" in="SourceGraphic" in2="effect1_dropShadow_460_907" result="shape"/>
</filter>
</defs>
</svg>
