<svg width="130" height="133" viewBox="0 0 130 133" fill="none" xmlns="http://www.w3.org/2000/svg">
<g filter="url(#filter0_d_192_1389)">
<path d="M47.3831 97.3643C45.7291 97.529 44.1734 97.7366 42.6107 97.8297C40.559 97.9514 38.5026 98.0134 36.4486 98.0492C34.053 98.0898 31.6528 98.0182 29.2595 98.1041C28.2746 98.1399 27.3061 98.5408 26.3189 98.6363C25.1632 98.7508 23.9888 98.7986 22.8308 98.7246C21.3055 98.6267 20.5896 97.6411 20.8539 96.1114C20.9826 95.3692 21.2095 94.6413 21.4341 93.9206C21.9769 92.1665 22.5968 90.434 23.0904 88.6656C23.8086 86.0834 24.8778 83.6659 26.12 81.3152C28.4782 76.8525 30.8153 72.3826 33.5945 68.1681C34.4461 66.877 35.0871 65.4451 35.8918 64.1206C37.1575 62.042 38.4652 59.992 39.787 57.9516C40.1473 57.3955 40.5894 56.8848 41.0479 56.4051C41.9814 55.429 43.0903 55.4004 44.0097 56.3884C44.8565 57.2977 45.6402 58.2713 46.4076 59.2522C49.2219 62.8367 52.0175 66.4355 54.8225 70.0272C54.991 70.2443 55.1875 70.4376 55.4097 70.6858C55.9759 70.1918 56.5116 69.7384 57.0333 69.2682C58.4837 67.9605 60.119 66.9796 61.9554 66.3496C62.9216 66.0179 63.8761 65.6599 64.84 65.3186C66.2296 64.8246 67.6449 64.7387 69.1094 64.9201C70.3259 65.0704 71.5658 65.1635 72.787 65.1015C74.9908 64.9917 77.1009 65.3306 79.1573 66.1133C79.6112 66.2851 80.0767 66.4307 80.6124 66.6121C80.8721 65.889 81.1903 65.2184 81.347 64.5144C81.5763 63.4739 81.1716 62.5575 80.4183 61.8869C79.3491 60.9347 78.2356 60.0254 77.0775 59.1925C75.7862 58.2642 74.6141 57.2285 73.5216 56.0591C71.9682 54.3957 71.1611 52.4268 70.9085 50.1979C70.5669 47.2076 70.9716 44.3295 72.27 41.597C73.4748 39.0626 75.5897 37.5471 77.9923 36.4804C79.8872 35.6403 81.8921 35.0199 83.8946 34.4733C85.5252 34.0271 86.7137 32.9913 87.4319 31.6191C88.3021 29.9581 88.7841 28.0871 89.4321 26.3068C89.4391 26.2877 89.4415 26.2639 89.4415 26.2424C89.3947 24.3284 90.2322 22.6459 90.8287 20.9134C91.7575 18.219 92.7939 15.5605 93.7741 12.8852C94.3075 11.4295 95.3228 10.8687 96.7943 11.3293C98.5629 11.8853 100.329 12.1263 102.191 11.8996C104.061 11.6729 105.796 12.3435 107.453 13.1621C108.157 13.5105 108.417 14.2861 108.176 15.1882C107.705 16.9637 107.209 18.7345 106.697 20.4981C105.883 23.2998 104.952 26.0705 104.264 28.9033C103.983 30.0631 104.098 31.3614 104.236 32.5737C104.362 33.681 104.659 34.7979 105.074 35.8313C105.453 36.7787 106.105 37.6092 106.608 38.5065C107.843 40.7188 108.721 43.048 108.679 45.6397C108.658 46.8735 108.611 48.1097 108.505 49.3387C108.276 52.0164 107.048 54.2859 105.609 56.46C104.187 58.6078 102.39 60.3619 100.257 61.7628C98.4202 62.9679 96.5814 64.1755 94.766 65.4141C94.4665 65.6193 94.1788 65.9463 94.0408 66.2828C93.4349 67.76 92.8898 69.2611 92.3143 70.7503C92.1739 71.1154 92.2581 71.3493 92.6044 71.545C95.9802 73.4589 97.8143 76.6234 99.1127 80.1458C101.108 85.556 101.419 91.1618 100.736 96.8607C100.488 98.9322 100.17 100.975 99.3092 102.896C98.2845 105.182 96.82 107.12 94.9602 108.755C93.8817 109.702 92.7611 110.604 91.7388 111.609C88.8425 114.454 85.303 116.167 81.6301 117.628C80.6358 118.024 79.541 118.205 78.4765 118.363C74.4948 118.95 70.5763 118.53 66.6554 117.678C61.8268 116.63 57.5175 114.42 53.482 111.666C50.1764 109.411 48.5739 105.951 47.9118 102.025C47.706 100.81 47.6334 99.5742 47.5001 98.3475C47.4697 98.0707 47.4369 97.7939 47.3901 97.3667L47.3831 97.3643ZM57.5667 73.2489C57.6298 73.3682 57.6556 73.4279 57.693 73.4804C61.7613 79.1721 65.4623 85.1097 69.0018 91.1523C69.4791 91.9661 69.713 92.9445 69.954 93.8753C70.0195 94.1234 69.7668 94.6389 69.5305 94.7511C69.0252 94.9897 68.438 95.152 67.8812 95.1544C66.5478 95.164 65.2073 95.1091 63.8785 94.9921C62.3134 94.8561 60.753 94.596 59.1926 94.9802C56.5958 95.6198 54.0037 96.2856 51.4046 96.918C51.035 97.0087 50.9203 97.1662 50.9671 97.5409C51.0724 98.4215 51.1473 99.3069 51.2385 100.19C51.7017 104.617 53.7089 107.91 57.6649 110.056C61.6186 112.199 65.6822 113.817 70.1037 114.676C76.5137 115.919 82.2547 114.494 87.4599 110.681C89.5233 109.17 91.4206 107.409 93.3179 105.674C95.407 103.765 96.7147 101.364 97.1709 98.5217C97.6295 95.6699 97.8307 92.799 97.6809 89.9089C97.5148 86.6824 96.9113 83.5299 95.7252 80.542C94.7122 77.9908 93.2945 75.7165 90.8755 74.2106C89.9 73.6045 89.1209 72.6666 88.2507 71.8791C88.1571 71.7955 88.0752 71.6738 87.9676 71.6333C86.2972 71.0056 84.6269 70.3756 82.9448 69.7813C82.7366 69.7074 82.4372 69.7646 82.2243 69.8649C81.6605 70.1274 81.209 70.0176 80.7762 69.588C80.6194 69.4305 80.4066 69.304 80.196 69.2348C79.4076 68.9819 78.6005 68.7838 77.8145 68.5189C76.2611 67.9915 74.682 67.7886 73.0444 67.9366C72.0524 68.0249 71.0278 68.1752 70.0592 68.0177C67.9748 67.6836 66.0541 68.0726 64.1802 68.9532C63.8153 69.1251 63.4316 69.2587 63.0456 69.3828C60.8419 70.094 59.237 71.6786 57.5667 73.2465V73.2489ZM85.5416 68.0034C85.8715 66.2422 86.2762 64.5526 86.4867 62.8415C86.8868 59.5863 87.4716 56.3836 88.4823 53.2645C88.6601 52.7132 88.7466 52.1262 88.8262 51.5486C88.8543 51.341 88.7958 51.0713 88.6788 50.8995C87.2447 48.8042 87.9466 46.8783 89.6309 45.4798C90.4006 44.8402 91.3177 44.697 92.2628 45.1767C92.8804 45.4917 93.498 45.8115 94.132 46.0907C95.8515 46.8496 96.317 48.7183 95.1403 50.2122C94.6397 50.847 93.9753 51.2097 93.1939 51.3482C92.8055 51.4174 92.2675 51.3338 92.064 51.5653C91.823 51.8422 91.8932 52.3863 91.7832 52.8039C91.3481 54.4554 90.8521 56.0901 90.4544 57.7487C89.6403 61.1518 89.2286 64.6576 87.9115 67.9294C87.7781 68.2612 87.6728 68.6072 87.5442 68.9795C88.2951 69.3112 88.9853 69.6167 89.7175 69.9412C89.8087 69.6262 89.8602 69.3947 89.9397 69.1752C90.4521 67.7552 90.8779 66.2923 91.5235 64.9392C91.8768 64.2017 92.5178 63.524 93.1822 63.0419C95.0116 61.715 96.93 60.5146 98.8015 59.2474C100.626 58.0136 102.231 56.522 103.375 54.6129C104.166 53.2931 105.055 51.9233 105.396 50.4532C106.26 46.7255 106.054 43.0527 103.892 39.7093C103.38 38.917 102.814 38.1175 102.512 37.2369C101.784 35.0962 100.942 32.9651 101.005 30.6335C101.017 30.2373 100.856 30.1085 100.486 30.0846C99.9151 30.044 99.3209 30.0369 98.7828 29.8674C96.7171 29.2159 94.6701 28.5071 92.6184 27.8103C92.2067 27.6695 91.809 27.4905 91.3715 27.3187C91.3107 27.5573 91.2779 27.7029 91.2358 27.8461C90.7632 29.371 90.4591 30.9795 89.776 32.3971C88.7022 34.6237 87.0833 36.342 84.5801 37.0173C82.8209 37.4922 81.0546 38.0125 79.3795 38.7261C76.619 39.905 74.4363 41.7402 73.9497 44.9906C73.7579 46.2673 73.6245 47.5799 73.6924 48.8662C73.7906 50.7324 74.3615 52.4459 75.6879 53.8683C76.6798 54.9303 77.7747 55.818 78.9444 56.6533C80.2264 57.5697 81.4874 58.541 82.6337 59.6245C84.3672 61.2616 85.2749 64.0251 83.8385 66.7553C83.7496 66.9223 83.6911 67.1061 83.6046 67.3185C84.2549 67.5476 84.8702 67.7671 85.5393 68.0034H85.5416ZM42.6528 59.9634C42.5124 60.1352 42.3954 60.2569 42.3065 60.3977C41.2912 62.0229 40.2502 63.6314 39.2817 65.2852C38.3552 66.8651 37.6043 68.5571 36.6053 70.0844C33.8589 74.2942 31.4984 78.7306 29.2081 83.2029C28.1904 85.1908 27.3856 87.2981 26.5739 89.3863C25.8463 91.2573 25.2427 93.176 24.5853 95.0733C24.5339 95.2212 24.5058 95.3787 24.438 95.6389C25.0369 95.541 25.5375 95.4766 26.0311 95.374C27.3412 95.1043 28.6372 94.6485 29.9567 94.5793C32.6891 94.4337 35.431 94.5101 38.1681 94.4599C39.3963 94.4361 40.6245 94.3454 41.8504 94.2428C43.4575 94.1091 45.0601 93.9111 46.6673 93.7846C47.0954 93.7512 47.2428 93.6414 47.2544 93.1856C47.3129 91.1929 47.4065 89.2025 47.4954 87.2122C47.6662 83.4129 48.6043 79.8642 50.7683 76.7045C51.5216 75.6043 52.2187 74.4636 52.965 73.3587C53.1522 73.0818 53.1779 72.9124 52.9533 72.6356C49.6594 68.5833 46.3795 64.5215 43.0949 60.4645C42.9639 60.3022 42.8189 60.1519 42.6528 59.9634V59.9634ZM55.4846 75.4898C54.5605 77.0171 53.6715 78.3154 52.9627 79.7091C52.3427 80.9286 51.7579 82.2125 51.4467 83.5394C50.7145 86.6561 50.7987 89.8612 50.7472 93.0424C50.7472 93.0997 50.787 93.1569 50.8361 93.2882C52.7942 92.83 54.7757 92.4553 56.7058 91.8897C58.3761 91.4005 60.0348 91.0139 61.7776 91.1666C62.8561 91.2597 63.9299 91.4005 65.0061 91.4983C65.3851 91.5317 65.7664 91.5031 66.2811 91.5031C62.669 86.1431 59.1364 80.9023 55.4846 75.4874V75.4898ZM92.8079 24.2353C92.9927 24.3284 93.0629 24.3761 93.1424 24.4C95.7392 25.1828 98.2518 26.2782 100.996 26.512C101.452 26.5502 101.628 26.481 101.763 26.0443C102.484 23.7127 103.251 21.3978 103.962 19.0638C104.311 17.9159 104.571 16.7418 104.914 15.4149C103.876 15.2717 102.938 15.0044 102.009 15.0426C100.437 15.1047 98.9232 14.8875 97.4213 14.4794C97.0586 14.3792 96.7007 14.2598 96.3287 14.1453C95.1473 17.5341 93.9799 20.8847 92.8102 24.2401L92.8079 24.2353Z" fill="black"/>
</g>
<defs>
<filter id="filter0_d_192_1389" x="0" y="0" width="138" height="141" filterUnits="userSpaceOnUse" color-interpolation-filters="sRGB">
<feFlood flood-opacity="0" result="BackgroundImageFix"/>
<feColorMatrix in="SourceAlpha" type="matrix" values="0 0 0 0 0 0 0 0 0 0 0 0 0 0 0 0 0 0 127 0" result="hardAlpha"/>
<feOffset dx="4" dy="4"/>
<feGaussianBlur stdDeviation="2"/>
<feComposite in2="hardAlpha" operator="out"/>
<feColorMatrix type="matrix" values="0 0 0 0 0 0 0 0 0 0 0 0 0 0 0 0 0 0 0.25 0"/>
<feBlend mode="normal" in2="BackgroundImageFix" result="effect1_dropShadow_192_1389"/>
<feBlend mode="normal" in="SourceGraphic" in2="effect1_dropShadow_192_1389" result="shape"/>
</filter>
</defs>
</svg>
